<?xml version="1.0" encoding="utf-8"?>
<!-- Generator: Adobe Illustrator 24.1.2, SVG Export Plug-In . SVG Version: 6.00 Build 0)  -->
<svg version="1.1" xmlns="http://www.w3.org/2000/svg" xmlns:xlink="http://www.w3.org/1999/xlink" x="0px" y="0px"
	 viewBox="0 0 128 128" style="enable-background:new 0 0 128 128;" xml:space="preserve">
<style type="text/css">
	.st0{fill-rule:evenodd;clip-rule:evenodd;fill:#13ABCF;}
	.st1{fill-rule:evenodd;clip-rule:evenodd;fill:#EF4456;}
	.st2{fill-rule:evenodd;clip-rule:evenodd;fill:#F5B938;}
	.st3{fill-rule:evenodd;clip-rule:evenodd;fill:#8C5CA6;}
	.st4{fill-rule:evenodd;clip-rule:evenodd;fill:#171C2D;}
</style>
<g id="layer_1">
	<g>
		<path class="st0" d="M11.2,0.2L34.1,35c0,0-19.5,19.6-9.8,43.9L7.6,90.1c0,0-14.7-26.8,3-57L11.2,0.2L11.2,0.2z"/>
		<path class="st1" d="M38.2,8l11.4,16.9c0,0,24.9-9.4,43.2,9.7L128,11.8H95.6C95.6,11.8,71.5-6,38.2,8L38.2,8z"/>
		<path class="st2" d="M103.4,50L121,38.6c0,0,13.3,29.7-3.4,57l-0.2,32.4L93.9,93.5C93.9,93.5,112.1,78.5,103.4,50L103.4,50z"/>
		<path class="st3" d="M78.2,104.6c0,0-23.7,10.6-43.2-9.9L0,117.6l32.6,0.2c0,0,23.7,16.7,56.5,3.1L78.2,104.6L78.2,104.6z"/>
		<path class="st4" d="M64.9,47.8c9.3,0,16.8,7.5,16.8,16.8s-7.5,16.8-16.8,16.8c-9.3,0-16.8-7.5-16.8-16.8S55.6,47.8,64.9,47.8
			L64.9,47.8z"/>
	</g>
</g>
<g id="layer_2">
</g>
</svg>
