<?xml version="1.0" encoding="utf-8"?>
<!-- Generator: Adobe Illustrator 24.1.2, SVG Export Plug-In . SVG Version: 6.00 Build 0)  -->
<svg version="1.1" id="레이어_1" xmlns="http://www.w3.org/2000/svg" xmlns:xlink="http://www.w3.org/1999/xlink" x="0px"
	 y="0px" viewBox="0 0 1311 242" style="enable-background:new 0 0 1311 242;" xml:space="preserve">
<style type="text/css">
	.st0{fill:#0F1B2C;}
	.st1{fill:#F4BF1B;}
	.st2{fill:#E73D4A;}
	.st3{fill:#1BA8D1;}
	.st4{fill:#8E539C;}
</style>
<g id="레이어_1_1_">
	<g>
		<path class="st0" d="M693.4,151.8c0,9.1-2.6,16.2-7.8,21.3s-12.2,7.7-21.1,7.7c-8.8,0-15.8-2.6-20.8-7.7c-5-5.1-7.5-12.2-7.5-21.3
			V24.1h-52.7v128.7c0,21.2,7.9,38.5,23.8,51.8c15.2,13,34.3,19.5,57.2,19.5s42.2-6.6,57.9-19.8c15.8-13.2,23.6-30.4,23.6-51.5V24.1
			h-52.6V151.8z"/>
		<polygon class="st0" points="885.8,24.1 885.8,123.9 817.1,24.1 771.1,24.1 771.1,222.5 823.7,222.5 823.7,122.8 892.4,222.5 
			938.4,222.5 938.4,24.1 		"/>
		<path class="st0" d="M563.1,85L563.1,85c0-34.3-28-62.3-62.3-62.3h-44.9l0,0H411h-12.3l0,0l0,0l-0.9,1.4l-30.1,50.1l-11.4-19
			l-19.6-32.6h-57.2l59.6,99.2L279.5,221h57.2l31-51.6l31,51.6h57.2l-44.3-73.8l-15.2-25.4l12.7-21.2l18.2-30.3l3.3-5.4h50.7h9.1
			c11,0,20.1,9,20.1,20.1c0,6.4-3,12-7.7,15.7c-3.4,2.7-7.7,4.3-12.4,4.3h-42.2l25.4,42.2l44.3,73.8h57.2l-47.9-79.7
			C548.3,131.4,563.1,109.8,563.1,85z"/>
		<g>
			<path class="st0" d="M147.6,104.2c-3.6-5.6-8.8-9.5-14.6-11.7c-3.4-1.3-6.9-1.9-10.5-1.9c-5.7,0-11.4,1.6-16.5,4.9
				c-6,3.9-10.1,9.5-12.1,15.8c-0.8,2.5-1.3,5.1-1.5,7.8c-0.3,6.2,1.2,12.5,4.8,18.1c3.6,5.5,8.6,9.4,14.3,11.6
				c2.6,1,5.3,1.7,8.1,1.9c6.6,0.6,13.4-0.9,19.3-4.7c5.1-3.3,8.8-7.9,11.1-13.1c1.5-3.4,2.3-7.1,2.5-10.8
				C152.7,115.8,151.2,109.6,147.6,104.2z"/>
			<path class="st1" d="M221.3,180.6c19.4-32.1,22.5-72.6,6.4-107.9l-32,20.9c10.5,28.4,3.5,60.6-17.8,82.1l20.8,31.9l22.4,34.4
				L221.3,180.6z"/>
			<path class="st2" d="M180.9,21c-32.1-19.4-72.6-22.5-108-6.4l20.9,32c28.4-10.5,60.6-3.5,82.1,17.8l31.9-20.8l34.4-22.4L180.9,21
				z"/>
			<path class="st3" d="M21.3,61.6C1.9,93.7-1.2,134.2,14.9,169.5l32-20.9C36.4,120.2,43.4,88,64.7,66.5L43.9,34.6L21.5,0.3
				L21.3,61.6z"/>
			<path class="st4" d="M61.9,221.2c32.1,19.4,72.6,22.5,107.9,6.4l-20.9-32c-28.4,10.5-60.6,3.5-82.1-17.8l-31.9,20.8L0.5,221
				L61.9,221.2z"/>
		</g>
	</g>
</g>
<g id="레이어_2_1_">
</g>
</svg>
